<?xml version="1.0" encoding="utf-8"?>
<svg xmlns="http://www.w3.org/2000/svg" style="margin: auto; background: black; display: block; shape-rendering: auto;"
     width="420" height="375" preserveAspectRatio="xMidYMid">
    <style type="text/css">
        text {
        text-anchor: middle; font-size: 33px; opacity: 0;
        }
    </style>
    <g style="transform-origin: 210px 187px; transform: scale(0.4125);">
        <g transform="translate(210,187)">
            <g transform="translate(0,0)">
                <g class="path"
                   style="transform: matrix(1, 0, 0, 1, 0, 14.925); opacity: 0.05; transform-origin: -237.4px -7.43653px; animation: 1s linear 0s 1 normal forwards running float-btt-in-8b6f0402-9ec9-4ccf-bdb2-28d6c50325e6;">
                    <path d="M37.93 0L6.41 0L6.41-56.02L37.93-56.02L37.93-51.21L11.45-51.21L11.45-30.39L32.89-30.39L32.89-25.59L11.45-25.59L11.45-4.80L37.93-4.80L37.93 0"
                          fill="#004d73" stroke="none" stroke-width="none"
                          transform="translate(-259.56998348236084,20.573473998478487)"
                          style="fill: rgb(0, 77, 115);"></path>
                </g>
                <g class="path"
                   style="transform: matrix(1, 0, 0, 1, 0, 14.925); opacity: 0.05; transform-origin: -199.61px -7.43653px; animation: 1s linear 0.0471429s 1 normal forwards running float-btt-in-8b6f0402-9ec9-4ccf-bdb2-28d6c50325e6;">
                    <path d="M73.20 0L46.72 0L46.72-56.02L51.76-56.02L51.76-4.80L73.20-4.80L73.20 0" fill="#004d73"
                          stroke="none" stroke-width="none"
                          transform="translate(-259.56998348236084,20.573473998478487)"
                          style="fill: rgb(0, 51, 78);"></path>
                </g>
                <g class="path"
                   style="transform: matrix(1, 0, 0, 1, 0, 14.925); opacity: 0.05; transform-origin: -162.6px -7.43653px; animation: 1s linear 0.0942857s 1 normal forwards running float-btt-in-8b6f0402-9ec9-4ccf-bdb2-28d6c50325e6;">
                    <path d="M112.73 0L81.21 0L81.21-56.02L112.73-56.02L112.73-51.21L86.25-51.21L86.25-30.39L107.70-30.39L107.70-25.59L86.25-25.59L86.25-4.80L112.73-4.80L112.73 0"
                          fill="#004d73" stroke="none" stroke-width="none"
                          transform="translate(-259.56998348236084,20.573473998478487)"
                          style="fill: rgb(0, 127, 219);"></path>
                </g>
                <g class="path"
                   style="transform: matrix(1, 0, 0, 1, 0, 14.925); opacity: 0.05; transform-origin: -122.285px -7.43653px; animation: 1s linear 0.141429s 1 normal forwards running float-btt-in-8b6f0402-9ec9-4ccf-bdb2-28d6c50325e6;">
                    <path d="M153.05-12.97L153.05-12.97L153.05-12.97Q153.05-10.12 151.97-7.62L151.97-7.62L151.97-7.62Q150.90-5.12 149.02-3.24L149.02-3.24L149.02-3.24Q147.15-1.37 144.65-0.29L144.65-0.29L144.65-0.29Q142.15 0.78 139.30 0.78L139.30 0.78L135.31 0.78L135.31 0.78Q132.46 0.78 129.94-0.29L129.94-0.29L129.94-0.29Q127.42-1.37 125.55-3.24L125.55-3.24L125.55-3.24Q123.67-5.12 122.60-7.62L122.60-7.62L122.60-7.62Q121.52-10.12 121.52-12.97L121.52-12.97L121.52-43.05L121.52-43.05Q121.52-45.90 122.60-48.40L122.60-48.40L122.60-48.40Q123.67-50.90 125.55-52.77L125.55-52.77L125.55-52.77Q127.42-54.65 129.94-55.72L129.94-55.72L129.94-55.72Q132.46-56.80 135.31-56.80L135.31-56.80L139.30-56.80L139.30-56.80Q142.15-56.80 144.65-55.72L144.65-55.72L144.65-55.72Q147.15-54.65 149.02-52.77L149.02-52.77L149.02-52.77Q150.90-50.90 151.97-48.40L151.97-48.40L151.97-48.40Q153.05-45.90 153.05-43.05L153.05-43.05L153.05-40.78L148.01-40L148.01-43.05L148.01-43.05Q148.01-44.92 147.30-46.54L147.30-46.54L147.30-46.54Q146.60-48.16 145.39-49.38L145.39-49.38L145.39-49.38Q144.18-50.59 142.56-51.29L142.56-51.29L142.56-51.29Q140.94-51.99 139.06-51.99L139.06-51.99L135.55-51.99L135.55-51.99Q133.67-51.99 132.05-51.29L132.05-51.29L132.05-51.29Q130.43-50.59 129.20-49.38L129.20-49.38L129.20-49.38Q127.97-48.16 127.27-46.54L127.27-46.54L127.27-46.54Q126.56-44.92 126.56-43.05L126.56-43.05L126.56-12.97L126.56-12.97Q126.56-11.09 127.27-9.47L127.27-9.47L127.27-9.47Q127.97-7.85 129.20-6.62L129.20-6.62L129.20-6.62Q130.43-5.39 132.05-4.69L132.05-4.69L132.05-4.69Q133.67-3.98 135.55-3.98L135.55-3.98L139.06-3.98L139.06-3.98Q140.94-3.98 142.56-4.69L142.56-4.69L142.56-4.69Q144.18-5.39 145.39-6.62L145.39-6.62L145.39-6.62Q146.60-7.85 147.30-9.47L147.30-9.47L147.30-9.47Q148.01-11.09 148.01-12.97L148.01-12.97L148.01-16.02L153.05-15.20L153.05-12.97"
                          fill="#004d73" stroke="none" stroke-width="none"
                          transform="translate(-259.56998348236084,20.573473998478487)"
                          style="fill: rgb(219, 235, 250);"></path>
                </g>
                <g class="path"
                   style="transform: matrix(1, 0, 0, 1, 0, 14.925); opacity: 0.05; transform-origin: -84.24px -7.43653px; animation: 1s linear 0.188571s 1 normal forwards running float-btt-in-8b6f0402-9ec9-4ccf-bdb2-28d6c50325e6;">
                    <path d="M191.21-51.21L177.85-51.21L177.85 0L172.81 0L172.81-51.21L159.45-51.21L159.45-56.02L191.21-56.02L191.21-51.21"
                          fill="#004d73" stroke="none" stroke-width="none"
                          transform="translate(-259.56998348236084,20.573473998478487)"
                          style="fill: rgb(33, 198, 205);"></path>
                </g>
                <g class="path"
                   style="transform: matrix(1, 0, 0, 1, 0, 14.925); opacity: 0.05; transform-origin: -44.685px -7.43653px; animation: 1s linear 0.235714s 1 normal forwards running float-btt-in-8b6f0402-9ec9-4ccf-bdb2-28d6c50325e6;">
                    <path d="M231.37 0L225.55 0L210.35-23.91L203.44-23.91L203.44 0L198.40 0L198.40-56.02L216.17-56.02L216.17-56.02Q219.02-56.02 221.52-54.94L221.52-54.94L221.52-54.94Q224.02-53.87 225.90-51.99L225.90-51.99L225.90-51.99Q227.77-50.12 228.85-47.60L228.85-47.60L228.85-47.60Q229.92-45.08 229.92-42.23L229.92-42.23L229.92-37.70L229.92-37.70Q229.92-34.84 228.85-32.32L228.85-32.32L228.85-32.32Q227.77-29.80 225.90-27.93L225.90-27.93L225.90-27.93Q224.02-26.05 221.52-24.98L221.52-24.98L221.52-24.98Q219.02-23.91 216.17-23.91L216.17-23.91L231.37 0zM224.88-37.70L224.88-42.23L224.88-42.23Q224.88-44.10 224.18-45.72L224.18-45.72L224.18-45.72Q223.48-47.34 222.27-48.57L222.27-48.57L222.27-48.57Q221.05-49.80 219.43-50.51L219.43-50.51L219.43-50.51Q217.81-51.21 215.94-51.21L215.94-51.21L203.44-51.21L203.44-28.71L215.94-28.71L215.94-28.71Q217.81-28.71 219.43-29.41L219.43-29.41L219.43-29.41Q221.05-30.12 222.27-31.35L222.27-31.35L222.27-31.35Q223.48-32.58 224.18-34.20L224.18-34.20L224.18-34.20Q224.88-35.82 224.88-37.70L224.88-37.70"
                          fill="#004d73" stroke="none" stroke-width="none"
                          transform="translate(-259.56998348236084,20.573473998478487)"
                          style="fill: rgb(101, 224, 203);"></path>
                </g>
                <g class="path"
                   style="transform: matrix(1, 0, 0, 1, 0, 14.925); opacity: 0.05; transform-origin: -3.64998px -7.43653px; animation: 1s linear 0.282857s 1 normal forwards running float-btt-in-8b6f0402-9ec9-4ccf-bdb2-28d6c50325e6;">
                    <path d="M271.68-12.97L271.68-12.97L271.68-12.97Q271.68-10.12 270.61-7.62L270.61-7.62L270.61-7.62Q269.53-5.12 267.66-3.24L267.66-3.24L267.66-3.24Q265.78-1.37 263.28-0.29L263.28-0.29L263.28-0.29Q260.78 0.78 257.93 0.78L257.93 0.78L253.95 0.78L253.95 0.78Q251.09 0.78 248.57-0.29L248.57-0.29L248.57-0.29Q246.05-1.37 244.18-3.24L244.18-3.24L244.18-3.24Q242.30-5.12 241.23-7.62L241.23-7.62L241.23-7.62Q240.16-10.12 240.16-12.97L240.16-12.97L240.16-43.05L240.16-43.05Q240.16-45.90 241.23-48.40L241.23-48.40L241.23-48.40Q242.30-50.90 244.18-52.77L244.18-52.77L244.18-52.77Q246.05-54.65 248.57-55.72L248.57-55.72L248.57-55.72Q251.09-56.80 253.95-56.80L253.95-56.80L257.93-56.80L257.93-56.80Q260.78-56.80 263.28-55.72L263.28-55.72L263.28-55.72Q265.78-54.65 267.66-52.77L267.66-52.77L267.66-52.77Q269.53-50.90 270.61-48.40L270.61-48.40L270.61-48.40Q271.68-45.90 271.68-43.05L271.68-43.05L271.68-12.97zM266.64-12.97L266.64-43.05L266.64-43.05Q266.64-44.92 265.94-46.54L265.94-46.54L265.94-46.54Q265.23-48.16 264.02-49.38L264.02-49.38L264.02-49.38Q262.81-50.59 261.19-51.29L261.19-51.29L261.19-51.29Q259.57-51.99 257.70-51.99L257.70-51.99L254.18-51.99L254.18-51.99Q252.30-51.99 250.68-51.29L250.68-51.29L250.68-51.29Q249.06-50.59 247.83-49.38L247.83-49.38L247.83-49.38Q246.60-48.16 245.90-46.54L245.90-46.54L245.90-46.54Q245.20-44.92 245.20-43.05L245.20-43.05L245.20-12.97L245.20-12.97Q245.20-11.09 245.90-9.47L245.90-9.47L245.90-9.47Q246.60-7.85 247.83-6.62L247.83-6.62L247.83-6.62Q249.06-5.39 250.68-4.69L250.68-4.69L250.68-4.69Q252.30-3.98 254.18-3.98L254.18-3.98L257.70-3.98L257.70-3.98Q259.57-3.98 261.19-4.69L261.19-4.69L261.19-4.69Q262.81-5.39 264.02-6.62L264.02-6.62L264.02-6.62Q265.23-7.85 265.94-9.47L265.94-9.47L265.94-9.47Q266.64-11.09 266.64-12.97L266.64-12.97"
                          fill="#004d73" stroke="none" stroke-width="none"
                          transform="translate(-259.56998348236084,20.573473998478487)"
                          style="fill: rgb(46, 74, 165);"></path>
                </g>
                <g class="path"
                   style="transform: matrix(1, 0, 0, 1, 0, 14.925); opacity: 0.05; transform-origin: 36.29px -7.43653px; animation: 1s linear 0.33s 1 normal forwards running float-btt-in-8b6f0402-9ec9-4ccf-bdb2-28d6c50325e6;">
                    <path d="M283.32-56.02L295.70-12.30L295.86-10.23L296.02-12.30L308.44-56.02L313.63-56.02L297.15 0L294.49 0L278.09-56.02L283.32-56.02"
                          fill="#004d73" stroke="none" stroke-width="none"
                          transform="translate(-259.56998348236084,20.573473998478487)"
                          style="fill: rgb(171, 234, 255);"></path>
                </g>
                <g class="path"
                   style="transform: matrix(1, 0, 0, 1, 0, 14.925); opacity: 0.05; transform-origin: 77.01px -7.43653px; animation: 1s linear 0.377143s 1 normal forwards running float-btt-in-8b6f0402-9ec9-4ccf-bdb2-28d6c50325e6;">
                    <path d="M352.34 0L320.82 0L320.82-56.02L352.34-56.02L352.34-51.21L325.86-51.21L325.86-30.39L347.30-30.39L347.30-25.59L325.86-25.59L325.86-4.80L352.34-4.80L352.34 0"
                          fill="#004d73" stroke="none" stroke-width="none"
                          transform="translate(-259.56998348236084,20.573473998478487)"
                          style="fill: rgb(0, 77, 115);"></path>
                </g>
                <g class="path"
                   style="transform: matrix(1, 0, 0, 1, 0, 14.925); opacity: 0.05; transform-origin: 118.045px -7.43653px; animation: 1s linear 0.424286s 1 normal forwards running float-btt-in-8b6f0402-9ec9-4ccf-bdb2-28d6c50325e6;">
                    <path d="M394.10 0L388.28 0L373.09-23.91L366.17-23.91L366.17 0L361.13 0L361.13-56.02L378.91-56.02L378.91-56.02Q381.76-56.02 384.26-54.94L384.26-54.94L384.26-54.94Q386.76-53.87 388.63-51.99L388.63-51.99L388.63-51.99Q390.51-50.12 391.58-47.60L391.58-47.60L391.58-47.60Q392.66-45.08 392.66-42.23L392.66-42.23L392.66-37.70L392.66-37.70Q392.66-34.84 391.58-32.32L391.58-32.32L391.58-32.32Q390.51-29.80 388.63-27.93L388.63-27.93L388.63-27.93Q386.76-26.05 384.26-24.98L384.26-24.98L384.26-24.98Q381.76-23.91 378.91-23.91L378.91-23.91L394.10 0zM387.62-37.70L387.62-42.23L387.62-42.23Q387.62-44.10 386.91-45.72L386.91-45.72L386.91-45.72Q386.21-47.34 385-48.57L385-48.57L385-48.57Q383.79-49.80 382.17-50.51L382.17-50.51L382.17-50.51Q380.55-51.21 378.67-51.21L378.67-51.21L366.17-51.21L366.17-28.71L378.67-28.71L378.67-28.71Q380.55-28.71 382.17-29.41L382.17-29.41L382.17-29.41Q383.79-30.12 385-31.35L385-31.35L385-31.35Q386.21-32.58 386.91-34.20L386.91-34.20L386.91-34.20Q387.62-35.82 387.62-37.70L387.62-37.70"
                          fill="#004d73" stroke="none" stroke-width="none"
                          transform="translate(-259.56998348236084,20.573473998478487)"
                          style="fill: rgb(0, 51, 78);"></path>
                </g>
                <g class="path"
                   style="transform: matrix(1, 0, 0, 1, 0, 14.925); opacity: 0.05; transform-origin: 155.215px -7.43653px; animation: 1s linear 0.471429s 1 normal forwards running float-btt-in-8b6f0402-9ec9-4ccf-bdb2-28d6c50325e6;">
                    <path d="M430.66-51.21L417.30-51.21L417.30 0L412.27 0L412.27-51.21L398.91-51.21L398.91-56.02L430.66-56.02L430.66-51.21"
                          fill="#004d73" stroke="none" stroke-width="none"
                          transform="translate(-259.56998348236084,20.573473998478487)"
                          style="fill: rgb(0, 127, 219);"></path>
                </g>
                <g class="path"
                   style="transform: matrix(1, 0, 0, 1, 0, 14.925); opacity: 0.05; transform-origin: 181.29px -26.8315px; animation: 1s linear 0.518571s 1 normal forwards running float-btt-in-8b6f0402-9ec9-4ccf-bdb2-28d6c50325e6;">
                    <path d="M443.87-56.02L439.88-38.79L437.85-38.79L437.85-56.02L443.87-56.02" fill="#004d73"
                          stroke="none" stroke-width="none"
                          transform="translate(-259.56998348236084,20.573473998478487)"
                          style="fill: rgb(219, 235, 250);"></path>
                </g>
                <g class="path"
                   style="transform: matrix(1, 0, 0, 1, 0, 14.925); opacity: 0.05; transform-origin: 207.245px -7.82652px; animation: 1s linear 0.565714s 1 normal forwards running float-btt-in-8b6f0402-9ec9-4ccf-bdb2-28d6c50325e6;">
                    <path d="M468.16-51.99L466.25-51.99L466.25-51.99Q464.38-51.99 462.75-51.29L462.75-51.29L462.75-51.29Q461.13-50.59 459.92-49.38L459.92-49.38L459.92-49.38Q458.71-48.16 458.01-46.54L458.01-46.54L458.01-46.54Q457.30-44.92 457.30-43.05L457.30-43.05L457.30-40.78L452.27-41.60L452.27-43.05L452.27-43.05Q452.27-45.90 453.34-48.40L453.34-48.40L453.34-48.40Q454.41-50.90 456.29-52.77L456.29-52.77L456.29-52.77Q458.16-54.65 460.66-55.72L460.66-55.72L460.66-55.72Q463.16-56.80 466.02-56.80L466.02-56.80L468.40-56.80L468.40-56.80Q471.25-56.80 473.77-55.78L473.77-55.78L473.77-55.78Q476.29-54.77 478.16-52.85L478.16-52.85L478.16-52.85Q480.04-50.94 481.11-48.26L481.11-48.26L481.11-48.26Q482.19-45.59 482.19-42.23L482.19-42.23L482.19-42.23Q482.19-38.91 481.19-35.55L481.19-35.55L481.19-35.55Q480.20-32.19 478.57-28.95L478.57-28.95L478.57-28.95Q476.95-25.70 474.86-22.66L474.86-22.66L474.86-22.66Q472.77-19.61 470.59-16.91L470.59-16.91L470.59-16.91Q465.47-10.63 458.98-4.80L458.98-4.80L482.58-4.80L482.58 0L451.05 0L451.05-3.98L451.05-3.98Q458.36-10 464.10-16.45L464.10-16.45L464.10-16.45Q466.56-19.22 468.91-22.34L468.91-22.34L468.91-22.34Q471.25-25.47 473.09-28.77L473.09-28.77L473.09-28.77Q474.92-32.07 476.04-35.49L476.04-35.49L476.04-35.49Q477.15-38.91 477.15-42.23L477.15-42.23L477.15-42.23Q477.15-44.69 476.41-46.52L476.41-46.52L476.41-46.52Q475.66-48.36 474.41-49.57L474.41-49.57L474.41-49.57Q473.16-50.78 471.54-51.39L471.54-51.39L471.54-51.39Q469.92-51.99 468.16-51.99L468.16-51.99"
                          fill="#004d73" stroke="none" stroke-width="none"
                          transform="translate(-259.56998348236084,20.573473998478487)"
                          style="fill: rgb(33, 198, 205);"></path>
                </g>
                <g class="path"
                   style="transform: matrix(1, 0, 0, 1, 0, 14.925); opacity: 0.05; transform-origin: 250.1px -7.43653px; animation: 1s linear 0.612857s 1 normal forwards running float-btt-in-8b6f0402-9ec9-4ccf-bdb2-28d6c50325e6;">
                    <path d="M525.55 0L493.79 0L493.79-4.80L507.15-4.80L507.15-51.21L493.79-45.59L493.79-50.39L507.15-56.02L512.19-56.02L512.19-4.80L525.55-4.80L525.55 0"
                          fill="#004d73" stroke="none" stroke-width="none"
                          transform="translate(-259.56998348236084,20.573473998478487)"
                          style="fill: rgb(101, 224, 203);"></path>
                </g>
            </g>
        </g>
    </g>
    <style id="float-btt-in-8b6f0402-9ec9-4ccf-bdb2-28d6c50325e6" data-anikit="">@keyframes
        float-btt-in-8b6f0402-9ec9-4ccf-bdb2-28d6c50325e6
        {
        0% {
        animation-timing-function: cubic-bezier(0.2242,0.7499,0.3142,0.8148);
        transform: translate(0px,14.925px) rotate(0deg) scale(1,1) skewX(0deg) skewY(0deg);
        opacity: 0.05;
        }
        100% {
        transform: translate(0px,0px) rotate(0deg) scale(1,1) skewX(0deg) skewY(0deg);
        opacity: 1;
        }
        }
    </style>
</svg>